<svg width="24" height="24" viewBox="0 0 24 24" fill="none" xmlns="http://www.w3.org/2000/svg">
<g clip-path="url(#clip0_1401_8814)">
<path d="M20.422 2.01562H3.57812C3.4911 2.01562 3.40764 2.05021 3.3461 2.11174C3.28457 2.17328 3.25 2.25673 3.25 2.34376V12.7969C3.25 12.8839 3.28457 12.9674 3.3461 13.0289C3.40764 13.0904 3.4911 13.125 3.57812 13.125H20.422C20.5091 13.125 20.5925 13.0904 20.6541 13.0289C20.7156 12.9674 20.7502 12.8839 20.7502 12.7969V2.34376C20.7502 2.25673 20.7156 2.17328 20.6541 2.11174C20.5925 2.05021 20.5091 2.01562 20.422 2.01562ZM20.0939 12.4688H3.90625V2.67189H20.0939V12.4688Z" fill="#2DA55F"/>
<path d="M23.1047 21.0375L21.875 13.8937V1.21875C21.875 1.13173 21.8405 1.04827 21.7789 0.986731C21.7174 0.925195 21.6339 0.890625 21.5469 0.890625H2.45307C2.36604 0.890625 2.28258 0.925195 2.22105 0.986731C2.15951 1.04827 2.12494 1.13173 2.12494 1.21875V13.8937L0.895314 21.0375C0.892124 21.0561 0.890556 21.0749 0.890627 21.0938V22.7812C0.890627 22.8683 0.925197 22.9517 0.986732 23.0133C1.04827 23.0748 1.13173 23.1094 1.21875 23.1094H22.7812C22.8683 23.1094 22.9517 23.0748 23.0133 23.0133C23.0748 22.9517 23.1094 22.8683 23.1094 22.7812V21.0938C23.1094 21.0749 23.1079 21.0561 23.1047 21.0375ZM2.72963 14.25H21.2704L22.3918 20.7656H1.60819L2.72963 14.25ZM2.78119 1.54688H21.2188V13.5938H2.78119V1.54688ZM1.54688 22.4531V21.4219H22.4531V22.4531H1.54688Z" fill="#2DA55F"/>
<path d="M4.95313 16.1098H6.07813C6.16515 16.1098 6.24861 16.0752 6.31015 16.0137C6.37168 15.9522 6.40625 15.8687 6.40625 15.7817C6.40625 15.6947 6.37168 15.6112 6.31015 15.5497C6.24861 15.4881 6.16515 15.4536 6.07813 15.4536H4.95313C4.8661 15.4536 4.78264 15.4881 4.72111 15.5497C4.65957 15.6112 4.625 15.6947 4.625 15.7817C4.625 15.8687 4.65957 15.9522 4.72111 16.0137C4.78264 16.0752 4.8661 16.1098 4.95313 16.1098Z" fill="#2DA55F"/>
<path d="M7.54688 16.1098H8.67188C8.7589 16.1098 8.84236 16.0752 8.90389 16.0137C8.96543 15.9522 9 15.8687 9 15.7817C9 15.6947 8.96543 15.6112 8.90389 15.5497C8.84236 15.4881 8.7589 15.4536 8.67188 15.4536H7.54688C7.45985 15.4536 7.37639 15.4881 7.31486 15.5497C7.25332 15.6112 7.21875 15.6947 7.21875 15.7817C7.21875 15.8687 7.25332 15.9522 7.31486 16.0137C7.37639 16.0752 7.45985 16.1098 7.54688 16.1098Z" fill="#2DA55F"/>
<path d="M10.1407 16.1098H11.2657C11.3527 16.1098 11.4361 16.0752 11.4977 16.0137C11.5592 15.9522 11.5938 15.8687 11.5938 15.7817C11.5938 15.6947 11.5592 15.6112 11.4977 15.5497C11.4361 15.4881 11.3527 15.4536 11.2657 15.4536H10.1407C10.0536 15.4536 9.97014 15.4881 9.9086 15.5497C9.84707 15.6112 9.8125 15.6947 9.8125 15.7817C9.8125 15.8687 9.84707 15.9522 9.9086 16.0137C9.97014 16.0752 10.0536 16.1098 10.1407 16.1098Z" fill="#2DA55F"/>
<path d="M12.7344 16.1098H13.8594C13.9465 16.1098 14.0299 16.0752 14.0915 16.0137C14.153 15.9522 14.1876 15.8687 14.1876 15.7817C14.1876 15.6947 14.153 15.6112 14.0915 15.5497C14.0299 15.4881 13.9465 15.4536 13.8594 15.4536H12.7344C12.6474 15.4536 12.564 15.4881 12.5024 15.5497C12.4409 15.6112 12.4062 15.6947 12.4062 15.7817C12.4062 15.8687 12.4409 15.9522 12.5024 16.0137C12.564 16.0752 12.6474 16.1098 12.7344 16.1098Z" fill="#2DA55F"/>
<path d="M15.3281 16.1098H16.4531C16.5402 16.1098 16.6236 16.0752 16.6852 16.0137C16.7467 15.9522 16.7813 15.8687 16.7813 15.7817C16.7813 15.6947 16.7467 15.6112 16.6852 15.5497C16.6236 15.4881 16.5402 15.4536 16.4531 15.4536H15.3281C15.2411 15.4536 15.1577 15.4881 15.0961 15.5497C15.0346 15.6112 15 15.6947 15 15.7817C15 15.8687 15.0346 15.9522 15.0961 16.0137C15.1577 16.0752 15.2411 16.1098 15.3281 16.1098Z" fill="#2DA55F"/>
<path d="M17.9219 16.1098H19.0469C19.1339 16.1098 19.2173 16.0752 19.2788 16.0137C19.3404 15.9522 19.375 15.8687 19.375 15.7817C19.375 15.6947 19.3404 15.6112 19.2788 15.5497C19.2173 15.4881 19.1339 15.4536 19.0469 15.4536H17.9219C17.8349 15.4536 17.7513 15.4881 17.6898 15.5497C17.6282 15.6112 17.5938 15.6947 17.5938 15.7817C17.5938 15.8687 17.6282 15.9522 17.6898 16.0137C17.7513 16.0752 17.8349 16.1098 17.9219 16.1098Z" fill="#2DA55F"/>
<path d="M3.65626 17.8359H4.78126C4.86828 17.8359 4.95173 17.8014 5.01327 17.7398C5.0748 17.6783 5.10938 17.5948 5.10938 17.5078C5.10938 17.4208 5.0748 17.3373 5.01327 17.2758C4.95173 17.2143 4.86828 17.1797 4.78126 17.1797H3.65626C3.56923 17.1797 3.48578 17.2143 3.42424 17.2758C3.36271 17.3373 3.32813 17.4208 3.32812 17.5078C3.32813 17.5948 3.36271 17.6783 3.42424 17.7398C3.48578 17.8014 3.56923 17.8359 3.65626 17.8359Z" fill="#2DA55F"/>
<path d="M7.375 17.1797H6.25C6.16297 17.1797 6.07951 17.2143 6.01798 17.2758C5.95644 17.3373 5.92188 17.4208 5.92188 17.5078C5.92188 17.5948 5.95644 17.6783 6.01798 17.7398C6.07951 17.8014 6.16297 17.8359 6.25 17.8359H7.375C7.46202 17.8359 7.54548 17.8014 7.60702 17.7398C7.66855 17.6783 7.70312 17.5948 7.70312 17.5078C7.70312 17.4208 7.66855 17.3373 7.60702 17.2758C7.54548 17.2143 7.46202 17.1797 7.375 17.1797Z" fill="#2DA55F"/>
<path d="M8.84375 17.8359H9.96875C10.0557 17.8359 10.1392 17.8014 10.2007 17.7398C10.2623 17.6783 10.2968 17.5948 10.2968 17.5078C10.2968 17.4208 10.2623 17.3373 10.2007 17.2758C10.1392 17.2143 10.0557 17.1797 9.96875 17.1797H8.84375C8.75673 17.1797 8.67326 17.2143 8.61172 17.2758C8.55019 17.3373 8.51562 17.4208 8.51562 17.5078C8.51562 17.5948 8.55019 17.6783 8.61172 17.7398C8.67326 17.8014 8.75673 17.8359 8.84375 17.8359Z" fill="#2DA55F"/>
<path d="M12.5625 17.8359C12.6495 17.8359 12.733 17.8014 12.7945 17.7398C12.8561 17.6783 12.8906 17.5948 12.8906 17.5078C12.8906 17.4208 12.8561 17.3373 12.7945 17.2758C12.733 17.2143 12.6495 17.1797 12.5625 17.1797H11.4375C11.3505 17.1797 11.267 17.2143 11.2055 17.2758C11.1439 17.3373 11.1094 17.4208 11.1094 17.5078C11.1094 17.5948 11.1439 17.6783 11.2055 17.7398C11.267 17.8014 11.3505 17.8359 11.4375 17.8359H12.5625Z" fill="#2DA55F"/>
<path d="M15.1563 17.1797H14.0313C13.9442 17.1797 13.8608 17.2143 13.7993 17.2758C13.7377 17.3373 13.7031 17.4208 13.7031 17.5078C13.7031 17.5948 13.7377 17.6783 13.7993 17.7398C13.8608 17.8014 13.9442 17.8359 14.0313 17.8359H15.1563C15.2433 17.8359 15.3268 17.8014 15.3883 17.7398C15.4498 17.6783 15.4844 17.5948 15.4844 17.5078C15.4844 17.4208 15.4498 17.3373 15.3883 17.2758C15.3268 17.2143 15.2433 17.1797 15.1563 17.1797Z" fill="#2DA55F"/>
<path d="M17.75 17.1797H16.625C16.538 17.1797 16.4546 17.2143 16.393 17.2758C16.3315 17.3373 16.2969 17.4208 16.2969 17.5078C16.2969 17.5948 16.3315 17.6783 16.393 17.7398C16.4546 17.8014 16.538 17.8359 16.625 17.8359H17.75C17.8371 17.8359 17.9205 17.8014 17.9821 17.7398C18.0436 17.6783 18.0782 17.5948 18.0782 17.5078C18.0782 17.4208 18.0436 17.3373 17.9821 17.2758C17.9205 17.2143 17.8371 17.1797 17.75 17.1797Z" fill="#2DA55F"/>
<path d="M18.8906 17.5078C18.8906 17.5948 18.9252 17.6783 18.9867 17.7398C19.0483 17.8014 19.1317 17.8359 19.2188 17.8359H20.3438C20.4308 17.8359 20.5142 17.8014 20.5758 17.7398C20.6373 17.6783 20.6719 17.5948 20.6719 17.5078C20.6719 17.4208 20.6373 17.3373 20.5758 17.2758C20.5142 17.2143 20.4308 17.1797 20.3438 17.1797H19.2188C19.1317 17.1797 19.0483 17.2143 18.9867 17.2758C18.9252 17.3373 18.8906 17.4208 18.8906 17.5078Z" fill="#2DA55F"/>
<path d="M3.65626 19.5621H4.78126C4.86828 19.5621 4.95173 19.5275 5.01327 19.4659C5.0748 19.4044 5.10938 19.321 5.10938 19.2339C5.10938 19.1469 5.0748 19.0634 5.01327 19.0019C4.95173 18.9404 4.86828 18.9058 4.78126 18.9058H3.65626C3.56923 18.9058 3.48578 18.9404 3.42424 19.0019C3.36271 19.0634 3.32813 19.1469 3.32812 19.2339C3.32813 19.321 3.36271 19.4044 3.42424 19.4659C3.48578 19.5275 3.56923 19.5621 3.65626 19.5621Z" fill="#2DA55F"/>
<path d="M7.375 18.9058H6.25C6.16297 18.9058 6.07951 18.9404 6.01798 19.0019C5.95644 19.0634 5.92188 19.1469 5.92188 19.2339C5.92188 19.321 5.95644 19.4044 6.01798 19.4659C6.07951 19.5275 6.16297 19.5621 6.25 19.5621H7.375C7.46202 19.5621 7.54548 19.5275 7.60702 19.4659C7.66855 19.4044 7.70312 19.321 7.70312 19.2339C7.70312 19.1469 7.66855 19.0634 7.60702 19.0019C7.54548 18.9404 7.46202 18.9058 7.375 18.9058Z" fill="#2DA55F"/>
<path d="M15.1561 18.9058H8.84375C8.75673 18.9058 8.67326 18.9404 8.61172 19.0019C8.55019 19.0634 8.51562 19.1469 8.51562 19.2339C8.51562 19.321 8.55019 19.4044 8.61172 19.4659C8.67326 19.5275 8.75673 19.5621 8.84375 19.5621H15.1561C15.2431 19.5621 15.3266 19.5275 15.3881 19.4659C15.4496 19.4044 15.4842 19.321 15.4842 19.2339C15.4842 19.1469 15.4496 19.0634 15.3881 19.0019C15.3266 18.9404 15.2431 18.9058 15.1561 18.9058Z" fill="#2DA55F"/>
<path d="M17.75 18.9058H16.625C16.538 18.9058 16.4546 18.9404 16.393 19.0019C16.3315 19.0634 16.2969 19.1469 16.2969 19.2339C16.2969 19.321 16.3315 19.4044 16.393 19.4659C16.4546 19.5275 16.538 19.5621 16.625 19.5621H17.75C17.8371 19.5621 17.9205 19.5275 17.9821 19.4659C18.0436 19.4044 18.0782 19.321 18.0782 19.2339C18.0782 19.1469 18.0436 19.0634 17.9821 19.0019C17.9205 18.9404 17.8371 18.9058 17.75 18.9058Z" fill="#2DA55F"/>
<path d="M20.3438 18.9058H19.2188C19.1317 18.9058 19.0483 18.9404 18.9867 19.0019C18.9252 19.0634 18.8906 19.1469 18.8906 19.2339C18.8906 19.321 18.9252 19.4044 18.9867 19.4659C19.0483 19.5275 19.1317 19.5621 19.2188 19.5621H20.3438C20.4308 19.5621 20.5142 19.5275 20.5758 19.4659C20.6373 19.4044 20.6719 19.321 20.6719 19.2339C20.6719 19.1469 20.6373 19.0634 20.5758 19.0019C20.5142 18.9404 20.4308 18.9058 20.3438 18.9058Z" fill="#2DA55F"/>
</g>
<defs>
<clipPath id="clip0_1401_8814">
<rect width="24" height="24" fill="white"/>
</clipPath>
</defs>
</svg>
